HIERARCHY
ROOT Root
{
  OFFSET 0.0 0.0 0.0
  CHANNELS 6 Xposition Yposition Zposition Zrotation Yrotation Xrotation
  JOINT Hips
  {
    OFFSET 0.0 100.0 0.0
    CHANNELS 6 Xposition Yposition Zposition Zrotation Yrotation Xrotation
    JOINT Spine1
    {
      OFFSET 5.003913 -0.037094 -0.013727
      CHANNELS 3 Zrotation Yrotation Xrotation
      JOINT Spine2
      {
        OFFSET 7.125363 -1e-06 0.0
        CHANNELS 3 Zrotation Yrotation Xrotation
        JOINT Chest
        {
          OFFSET 7.594027 1e-06 0.0
          CHANNELS 3 Zrotation Yrotation Xrotation
          JOINT Neck1
          {
            OFFSET 26.313086 -0.460272 -0.181672
            CHANNELS 3 Zrotation Yrotation Xrotation
            JOINT Neck2
            {
              OFFSET 8.045911 0.0 0.0
              CHANNELS 3 Zrotation Yrotation Xrotation
              JOINT Head
              {
                OFFSET 6.432774 0.0 0.0
                CHANNELS 3 Zrotation Yrotation Xrotation
                JOINT HeadEnd
                {
                  OFFSET 16.169773 0.06451 0.00362
                  CHANNELS 3 Zrotation Yrotation Xrotation
                }
                JOINT Jaw
                {
                  OFFSET 0.108741 3.12938 0.002639
                  CHANNELS 3 Zrotation Yrotation Xrotation
                }
                JOINT LeftEye
                {
                  OFFSET 4.45173 8.166359 3.206392
                  CHANNELS 3 Zrotation Yrotation Xrotation
                }
                JOINT RightEye
                {
                  OFFSET 4.436895 8.135758 -3.222429
                  CHANNELS 3 Zrotation Yrotation Xrotation
                }
              }
            }
          }
          JOINT LeftShoulder
          {
            OFFSET 23.218927 5.195579 1.621656
            CHANNELS 3 Zrotation Yrotation Xrotation
            JOINT LeftArm
            {
              OFFSET 15.902118 2e-06 -2e-06
              CHANNELS 3 Zrotation Yrotation Xrotation
              JOINT LeftForeArm
              {
                OFFSET 28.739307 0.0 -1e-06
                CHANNELS 3 Zrotation Yrotation Xrotation
                JOINT LeftHand
                {
                  OFFSET 27.093981 -4e-06 0.0
                  CHANNELS 3 Zrotation Yrotation Xrotation
                  JOINT LeftHandThumb1
                  {
                    OFFSET 2.276781 3.380274 0.83384
                    CHANNELS 3 Zrotation Yrotation Xrotation
                    JOINT LeftHandThumb2
                    {
                      OFFSET 4.705309 -1e-06 -1e-06
                      CHANNELS 3 Zrotation Yrotation Xrotation
                      JOINT LeftHandThumb3
                      {
                        OFFSET 2.798515 0.0 3e-06
                        CHANNELS 3 Zrotation Yrotation Xrotation
                        JOINT LeftHandThumbEnd
                        {
                          OFFSET 3.180793 4e-06 -4e-06
                          CHANNELS 3 Zrotation Yrotation Xrotation
                        }
                      }
                    }
                  }
                  JOINT LeftHandIndex1
                  {
                    OFFSET 3.247786 2.352677 0.137192
                    CHANNELS 3 Zrotation Yrotation Xrotation
                    JOINT LeftHandIndex2
                    {
                      OFFSET 6.367095 1e-06 0.0
                      CHANNELS 3 Zrotation Yrotation Xrotation
                      JOINT LeftHandIndex3
                      {
                        OFFSET 3.662364 0.0 0.0
                        CHANNELS 3 Zrotation Yrotation Xrotation
                        JOINT LeftHandIndex4
                        {
                          OFFSET 2.329242 4e-06 -4e-06
                          CHANNELS 3 Zrotation Yrotation Xrotation
                          JOINT LeftHandIndexEnd
                          {
                            OFFSET 2.767823 1e-06 0.0
                            CHANNELS 3 Zrotation Yrotation Xrotation
                          }
                        }
                      }
                    }
                  }
                  JOINT LeftHandMiddle1
                  {
                    OFFSET 3.163612 0.945023 -0.406112
                    CHANNELS 3 Zrotation Yrotation Xrotation
                    JOINT LeftHandMiddle2
                    {
                      OFFSET 6.276789 3e-06 0.0
                      CHANNELS 3 Zrotation Yrotation Xrotation
                      JOINT LeftHandMiddle3
                      {
                        OFFSET 4.35652 -1e-06 4e-06
                        CHANNELS 3 Zrotation Yrotation Xrotation
                        JOINT LeftHandMiddle4
                        {
                          OFFSET 2.996877 0.0 8e-06
                          CHANNELS 3 Zrotation Yrotation Xrotation
                          JOINT LeftHandMiddleEnd
                          {
                            OFFSET 2.323256 3e-06 -4e-06
                            CHANNELS 3 Zrotation Yrotation Xrotation
                          }
                        }
                      }
                    }
                  }
                  JOINT LeftHandRing1
                  {
                    OFFSET 2.882606 -0.309162 0.107445
                    CHANNELS 3 Zrotation Yrotation Xrotation
                    JOINT LeftHandRing2
                    {
                      OFFSET 6.033198 0.0 4e-06
                      CHANNELS 3 Zrotation Yrotation Xrotation
                      JOINT LeftHandRing3
                      {
                        OFFSET 4.350578 3e-06 0.0
                        CHANNELS 3 Zrotation Yrotation Xrotation
                        JOINT LeftHandRing4
                        {
                          OFFSET 2.651321 2e-06 -7e-06
                          CHANNELS 3 Zrotation Yrotation Xrotation
                          JOINT LeftHandRingEnd
                          {
                            OFFSET 1.937663 1e-06 -4e-06
                            CHANNELS 3 Zrotation Yrotation Xrotation
                          }
                        }
                      }
                    }
                  }
                  JOINT LeftHandPinky1
                  {
                    OFFSET 2.865315 -1.525436 0.575687
                    CHANNELS 3 Zrotation Yrotation Xrotation
                    JOINT LeftHandPinky2
                    {
                      OFFSET 5.54936 1e-06 -8e-06
                      CHANNELS 3 Zrotation Yrotation Xrotation
                      JOINT LeftHandPinky3
                      {
                        OFFSET 3.070974 0.0 -4e-06
                        CHANNELS 3 Zrotation Yrotation Xrotation
                        JOINT LeftHandPinky4
                        {
                          OFFSET 1.549672 1e-06 0.0
                          CHANNELS 3 Zrotation Yrotation Xrotation
                          JOINT LeftHandPinkyEnd
                          {
                            OFFSET 1.952123 0.0 0.0
                            CHANNELS 3 Zrotation Yrotation Xrotation
                          }
                        }
                      }
                    }
                  }
                }
              }
            }
          }
          JOINT RightShoulder
          {
            OFFSET 23.161716 5.296122 -1.380114
            CHANNELS 3 Zrotation Yrotation Xrotation
            JOINT RightArm
            {
              OFFSET -16.027195 -2e-06 1.1e-05
              CHANNELS 3 Zrotation Yrotation Xrotation
              JOINT RightForeArm
              {
                OFFSET -28.736639 4e-06 2e-06
                CHANNELS 3 Zrotation Yrotation Xrotation
                JOINT RightHand
                {
                  OFFSET -27.133619 6e-06 0.0
                  CHANNELS 3 Zrotation Yrotation Xrotation
                  JOINT RightHandThumb1
                  {
                    OFFSET -2.274328 -3.351035 -0.83067
                    CHANNELS 3 Zrotation Yrotation Xrotation
                    JOINT RightHandThumb2
                    {
                      OFFSET -4.703594 -3e-06 2e-06
                      CHANNELS 3 Zrotation Yrotation Xrotation
                      JOINT RightHandThumb3
                      {
                        OFFSET -2.794935 -4e-06 -3e-06
                        CHANNELS 3 Zrotation Yrotation Xrotation
                        JOINT RightHandThumbEnd
                        {
                          OFFSET -3.183852 4e-06 1e-06
                          CHANNELS 3 Zrotation Yrotation Xrotation
                        }
                      }
                    }
                  }
                  JOINT RightHandIndex1
                  {
                    OFFSET -3.253496 -2.33755 -0.127667
                    CHANNELS 3 Zrotation Yrotation Xrotation
                    JOINT RightHandIndex2
                    {
                      OFFSET -6.344434 0.0 0.0
                      CHANNELS 3 Zrotation Yrotation Xrotation
                      JOINT RightHandIndex3
                      {
                        OFFSET -3.654871 0.0 -8e-06
                        CHANNELS 3 Zrotation Yrotation Xrotation
                        JOINT RightHandIndex4
                        {
                          OFFSET -2.327586 -1e-06 0.0
                          CHANNELS 3 Zrotation Yrotation Xrotation
                          JOINT RightHandIndexEnd
                          {
                            OFFSET -2.770001 3e-06 8e-06
                            CHANNELS 3 Zrotation Yrotation Xrotation
                          }
                        }
                      }
                    }
                  }
                  JOINT RightHandMiddle1
                  {
                    OFFSET -3.168223 -0.944764 0.411762
                    CHANNELS 3 Zrotation Yrotation Xrotation
                    JOINT RightHandMiddle2
                    {
                      OFFSET -6.266691 -1e-06 -4e-06
                      CHANNELS 3 Zrotation Yrotation Xrotation
                      JOINT RightHandMiddle3
                      {
                        OFFSET -4.348901 0.0 0.0
                        CHANNELS 3 Zrotation Yrotation Xrotation
                        JOINT RightHandMiddle4
                        {
                          OFFSET -3.00024 2e-06 -4e-06
                          CHANNELS 3 Zrotation Yrotation Xrotation
                          JOINT RightHandMiddleEnd
                          {
                            OFFSET -2.321477 -4e-06 -4e-06
                            CHANNELS 3 Zrotation Yrotation Xrotation
                          }
                        }
                      }
                    }
                  }
                  JOINT RightHandRing1
                  {
                    OFFSET -2.885654 0.293261 -0.119232
                    CHANNELS 3 Zrotation Yrotation Xrotation
                    JOINT RightHandRing2
                    {
                      OFFSET -6.032835 -1e-06 -4e-06
                      CHANNELS 3 Zrotation Yrotation Xrotation
                      JOINT RightHandRing3
                      {
                        OFFSET -4.33881 0.0 -4e-06
                        CHANNELS 3 Zrotation Yrotation Xrotation
                        JOINT RightHandRing4
                        {
                          OFFSET -2.654903 -4e-06 -4e-06
                          CHANNELS 3 Zrotation Yrotation Xrotation
                          JOINT RightHandRingEnd
                          {
                            OFFSET -1.935122 0.0 4e-06
                            CHANNELS 3 Zrotation Yrotation Xrotation
                          }
                        }
                      }
                    }
                  }
                  JOINT RightHandPinky1
                  {
                    OFFSET -2.866241 1.503904 -0.60527
                    CHANNELS 3 Zrotation Yrotation Xrotation
                    JOINT RightHandPinky2
                    {
                      OFFSET -5.553177 -2e-06 0.0
                      CHANNELS 3 Zrotation Yrotation Xrotation
                      JOINT RightHandPinky3
                      {
                        OFFSET -3.062664 -1e-06 -4e-06
                        CHANNELS 3 Zrotation Yrotation Xrotation
                        JOINT RightHandPinky4
                        {
                          OFFSET -1.546529 2e-06 4e-06
                          CHANNELS 3 Zrotation Yrotation Xrotation
                          JOINT RightHandPinkyEnd
                          {
                            OFFSET -1.952341 0.0 -4e-06
                            CHANNELS 3 Zrotation Yrotation Xrotation
                          }
                        }
                      }
                    }
                  }
                }
              }
            }
          }
        }
      }
    }
    JOINT LeftLeg
    {
      OFFSET -8.443107 2.567604 10.043214
      CHANNELS 3 Zrotation Yrotation Xrotation
      JOINT LeftShin
      {
        OFFSET 43.229198 1e-06 -1e-06
        CHANNELS 3 Zrotation Yrotation Xrotation
        JOINT LeftFoot
        {
          OFFSET 42.298611 1e-06 1e-06
          CHANNELS 3 Zrotation Yrotation Xrotation
          JOINT LeftToeBase
          {
            OFFSET 14.165858 1e-06 0.0
            CHANNELS 3 Zrotation Yrotation Xrotation
            JOINT LeftToeEnd
            {
              OFFSET 6.7141 -0.234461 0.0
              CHANNELS 3 Zrotation Yrotation Xrotation
            }
          }
        }
      }
    }
    JOINT RightLeg
    {
      OFFSET -8.303923 2.592729 -10.047278
      CHANNELS 3 Zrotation Yrotation Xrotation
      JOINT RightShin
      {
        OFFSET -43.369682 0.0 1e-06
        CHANNELS 3 Zrotation Yrotation Xrotation
        JOINT RightFoot
        {
          OFFSET -42.260784 4e-06 2e-06
          CHANNELS 3 Zrotation Yrotation Xrotation
          JOINT RightToeBase
          {
            OFFSET -14.222245 -2e-06 -1e-06
            CHANNELS 3 Zrotation Yrotation Xrotation
            JOINT RightToeEnd
            {
              OFFSET -6.660062 0.232574 -2e-06
              CHANNELS 3 Zrotation Yrotation Xrotation
            }
          }
        }
      }
    }
  }
}
MOTION
Frames: 4
Frame Time: 0.03333333333333333
0.0 0.0 0.0 0.0 -0.0 0.0 -0.775356 99.115143 -5.377205 92.786987 2.626363 89.551979 -2.990409 -0.203332 0.038469 -12.154908 -0.57301 0.59155 18.324717 -2.003414 -1.762013 19.223286 -0.498485 2.752201 -2.554562 -0.717145 2.16622 -26.516176 -1.432592 3.659212 6e-06 0.0 0.0 0.000702 0.031126 0.025337 -0.06262 0.118201 0.030666 -0.036211 -0.05965 0.029416 -140.752411 -73.903954 159.264374 42.237141 -52.009827 9.010153 24.484694 -0.007178 -0.012402 2.45044 3.969515 -5.448023 17.636637 -26.322729 52.411179 -19.46666 -14.395596 29.410385 -1e-06 -8.774821 -3e-06 15.443533 -18.147438 6.337064 -0.609776 -1.795654 -3.889328 -4.807088 -11.046811 -2.937848 7e-06 -20.976019 -3e-06 -5.019969 -25.033558 -4.03188 8e-06 1e-06 0.0 -10.634536 -5.686973 -3.565586 10.573275 -17.922951 -3.113903 4e-06 -13.821209 0.0 -0.501775 -31.181505 -4.027016 -11.517822 -59.153816 7.207132 -13.982718 -7.150198 -2.875043 13.772731 -8.401494 -3.21824 0.347737 -34.211555 0.771654 -0.963026 -17.73337 2.621021 1e-06 -1e-06 -0.0 -17.346416 -20.095215 -4.201779 21.757557 -1.638378 3.866426 2e-06 -6.338822 1e-06 -1.697587 -22.591738 -6.194005 1e-06 -4e-06 -0.0 20.775745 -71.250175 177.663574 39.917805 -50.528011 1.019539 24.687464 -0.24523 -0.031677 0.027231 4.349683 6.865845 22.182117 -20.375893 49.933315 -16.701817 -16.74353 28.476526 -5e-06 -12.6906 2e-06 16.328699 -17.778673 2.564268 -0.105917 -1.513855 -4.27588 -5.039041 -5.612872 -2.953554 7e-06 -11.020524 -3e-06 -6.111296 -15.89533 -3.840471 1e-06 0.0 -1e-06 -10.283369 -5.680286 -4.341838 11.028297 -11.302406 -2.372635 -1.384268 -14.23858 -6.320119 -0.625433 -26.924194 -3.8276 -4.309916 -49.947495 -3.733454 -13.708524 -7.363473 -3.72094 18.141153 -14.052741 -3.242676 9e-06 -18.787271 -2e-06 -0.42971 -8.456045 2.555502 2e-06 -1e-06 -3e-06 -15.923532 -20.094482 -5.473586 30.419218 -7.190831 1.735923 5e-06 -8.162927 -2e-06 -1.861896 -22.861473 -6.167941 -0.0 -2e-06 -1e-06 -174.027847 -2.444021 -0.992954 7.81691 -0.061205 -0.021303 -80.182861 -2.064797 -8.395511 -2.852566 1.493346 2.191496 -0.999999 0.0 0.0 3.905811 -8.291548 0.391715 15.771819 -0.083691 0.188611 -86.40435 3.208683 -6.852787 -2.857047 0.645086 1.692891 -1.000001 0.0 0.0 
0.0 0.0 0.0 0.0 -0.0 0.0 -0.636132 99.226723 -5.492202 92.773949 2.635634 89.350243 -2.946827 -0.199652 0.017638 -12.132898 -0.541757 0.599593 18.224972 -1.964406 -1.727707 19.219896 -0.557035 2.745141 -2.531671 -0.649884 2.192038 -26.459003 -1.510168 3.736355 6e-06 0.0 -0.0 -0.004556 0.033764 0.059001 -0.051955 0.124358 0.0671 -0.030895 -0.060278 0.059547 -140.579956 -73.987442 159.185852 42.418518 -52.111805 8.63204 24.608744 -0.052213 -0.027645 2.532272 3.742801 -4.990402 17.636627 -26.322725 52.411179 -19.466656 -14.395597 29.410381 0.0 -8.774821 -3e-06 15.484327 -18.106325 6.281353 -0.609776 -1.795653 -3.889327 -4.80709 -11.046809 -2.937847 2e-06 -20.976013 -1e-06 -5.019974 -25.033556 -4.03188 7e-06 1e-06 1e-06 -10.634533 -5.686972 -3.565582 10.573272 -17.922947 -3.113903 1e-06 -13.821208 -1e-06 -0.501779 -31.181505 -4.027018 -11.519699 -59.157299 7.298054 -13.982715 -7.150201 -2.875037 13.772729 -8.40149 -3.218242 0.347732 -34.211544 0.771652 -0.963031 -17.73337 2.62102 -1e-06 -1e-06 1e-06 -17.346422 -20.095217 -4.201776 21.757557 -1.638374 3.866429 1e-06 -6.338822 0.0 -1.697591 -22.591745 -6.194003 -0.0 -2e-06 -2e-06 20.645512 -71.240723 178.008545 39.773537 -50.501389 0.997492 24.78768 -0.223243 -0.043997 0.035035 4.329583 6.698477 22.182121 -20.375891 49.933315 -16.701811 -16.74353 28.476528 -2e-06 -12.690601 -1e-06 16.356918 -17.759624 2.562206 -0.105919 -1.513857 -4.275878 -5.039042 -5.612873 -2.953557 3e-06 -11.020523 -2e-06 -6.111298 -15.895332 -3.840473 0.0 0.0 0.0 -10.283373 -5.68029 -4.341835 11.028294 -11.302405 -2.372638 -1.384271 -14.238581 -6.320118 -0.625439 -26.924194 -3.827606 -4.343144 -50.012218 -3.716477 -13.708527 -7.363478 -3.720938 18.141153 -14.052739 -3.242677 6e-06 -18.787271 -2e-06 -0.42971 -8.456043 2.555503 1e-06 -2e-06 -2e-06 -15.923539 -20.094482 -5.473582 30.419214 -7.190824 1.735925 2e-06 -8.162925 -3e-06 -1.861902 -22.861471 -6.167943 0.0 -3e-06 -1e-06 -173.386276 -2.296643 -0.959945 6.49136 -0.037353 0.010769 -79.369499 -2.349359 -8.389103 -2.70964 1.496275 2.202838 -1.0 -0.0 -0.0 4.274542 -8.39369 0.407706 14.7619 -0.082853 0.215466 -85.778961 3.230562 -6.926674 -2.849996 0.600085 1.685712 -1.000001 -0.0 -0.0 
0.0 0.0 0.0 0.0 -0.0 0.0 -0.511625 99.291504 -5.667529 92.780945 2.703236 89.122276 -2.934948 -0.206035 0.019608 -12.132326 -0.538609 0.59571 18.233662 -1.908733 -1.680888 19.194139 -0.597648 2.792282 -2.546335 -0.610718 2.191821 -26.336216 -1.573463 3.800458 6e-06 0.0 -0.0 -0.008127 0.034153 0.066411 -0.06103 0.125938 0.077457 -0.03955 -0.061332 0.063283 -140.557358 -74.043098 159.187256 42.413322 -52.173836 8.58317 24.763903 -0.074988 -0.046754 2.518701 3.528872 -4.804748 17.636621 -26.322735 52.411205 -19.46665 -14.395597 29.410393 -0.0 -8.77482 -2e-06 15.529858 -18.123619 6.253131 -0.609776 -1.795653 -3.889326 -4.807087 -11.046808 -2.937853 4e-06 -20.976015 -1e-06 -5.019972 -25.033552 -4.031878 7e-06 2e-06 1e-06 -10.634533 -5.686971 -3.56559 10.573272 -17.922947 -3.1139 3e-06 -13.821205 -1e-06 -0.501778 -31.181498 -4.027013 -11.593096 -59.166786 7.347847 -13.982712 -7.150198 -2.875043 13.772726 -8.401489 -3.218243 0.347732 -34.211544 0.771657 -0.963031 -17.733368 2.621021 -1e-06 0.0 1e-06 -17.346416 -20.095213 -4.201784 21.757555 -1.638374 3.866428 0.0 -6.338822 1e-06 -1.697592 -22.59174 -6.194002 1e-06 -3e-06 1e-06 20.383833 -71.211449 178.410217 39.541321 -50.417576 1.142813 24.931768 -0.196123 -0.047011 -0.030922 4.395041 6.496201 22.182114 -20.375895 49.933319 -16.701811 -16.743528 28.47653 -3e-06 -12.690598 1e-06 16.35828 -17.707506 2.568067 -0.105921 -1.513854 -4.275882 -5.03904 -5.612871 -2.953555 5e-06 -11.02052 -1e-06 -6.111294 -15.895329 -3.840472 0.0 1e-06 0.0 -10.283367 -5.680286 -4.34184 11.028291 -11.302404 -2.372634 -1.384269 -14.238578 -6.320117 -0.625436 -26.924187 -3.827604 -4.338802 -49.993206 -3.730312 -13.708525 -7.363477 -3.720942 18.14115 -14.052738 -3.242675 6e-06 -18.78727 0.0 -0.429711 -8.456041 2.555504 2e-06 -2e-06 -2e-06 -15.923532 -20.094481 -5.473588 30.419205 -7.190826 1.735926 2e-06 -8.162925 -1e-06 -1.861901 -22.861467 -6.16794 2e-06 -5e-06 0.0 -173.159424 -2.178826 -1.006481 6.011867 -0.021429 0.023858 -78.93203 -2.553654 -8.371366 -2.605779 1.489933 2.21232 -0.999999 -0.0 -0.0 4.395304 -8.521935 0.462513 14.290221 -0.066921 0.210138 -85.394318 3.30656 -7.068315 -2.828065 0.581645 1.68345 -1.000003 0.0 0.0 
0.0 0.0 0.0 0.0 -0.0 0.0 -0.433987 99.336792 -5.8716 92.774887 2.800415 88.816307 -2.923593 -0.224282 0.033307 -12.140303 -0.53347 0.596929 18.29879 -1.848726 -1.620903 19.149408 -0.60079 2.84498 -2.565288 -0.616453 2.24508 -26.274679 -1.584262 3.86635 5e-06 0.0 -0.0 -0.010335 0.032299 0.059269 -0.076869 0.127239 0.072863 -0.053495 -0.066714 0.053022 -140.572418 -74.068657 159.190781 42.339661 -52.176765 8.781941 24.872269 -0.076701 -0.054405 2.493637 3.462767 -4.742658 17.636627 -26.322733 52.411194 -19.46666 -14.395597 29.410389 -1e-06 -8.774821 -3e-06 15.559764 -18.114155 6.238053 -0.609778 -1.795654 -3.889329 -4.807087 -11.046809 -2.937851 6e-06 -20.976015 -3e-06 -5.019971 -25.033552 -4.031878 6e-06 1e-06 -1e-06 -10.634533 -5.686968 -3.565592 10.573275 -17.922953 -3.113897 3e-06 -13.821208 -2e-06 -0.501777 -31.181501 -4.027015 -11.63246 -59.179176 7.387738 -13.982712 -7.150195 -2.875045 13.772729 -8.401493 -3.218243 0.34774 -34.211544 0.77165 -0.963028 -17.73337 2.621021 -0.0 -0.0 -0.0 -17.346416 -20.095215 -4.201784 21.757557 -1.638376 3.866428 2e-06 -6.338823 -0.0 -1.697587 -22.591742 -6.194004 -1e-06 -2e-06 -1e-06 19.985163 -71.203094 178.884262 39.354141 -50.310356 1.48632 25.089678 -0.143356 -0.032103 -0.126609 4.44083 6.306286 22.182119 -20.375895 49.933319 -16.701813 -16.743528 28.476532 -2e-06 -12.690603 1e-06 16.319778 -17.65303 2.589869 -0.105919 -1.513857 -4.275881 -5.039041 -5.612873 -2.953554 3e-06 -11.020524 -2e-06 -6.1113 -15.895336 -3.840469 -0.0 2e-06 -0.0 -10.283371 -5.680288 -4.341839 11.028295 -11.302406 -2.372635 -1.384272 -14.238583 -6.32012 -0.625439 -26.924194 -3.827603 -4.339087 -49.932476 -3.714642 -13.708528 -7.363478 -3.720935 18.141151 -14.052739 -3.242675 5e-06 -18.787271 -1e-06 -0.429713 -8.456041 2.555505 2e-06 -1e-06 -2e-06 -15.923536 -20.094482 -5.473584 30.419214 -7.190827 1.735926 3e-06 -8.162922 -3e-06 -1.861902 -22.861473 -6.167942 1e-06 -3e-06 -0.0 -173.141479 -2.103291 -1.176911 5.957007 -0.014398 0.027054 -78.685089 -2.741135 -8.386954 -2.549705 1.48423 2.21782 -0.999998 -0.0 0.0 4.366775 -8.613773 0.541926 14.106441 -0.057421 0.191265 -85.125107 3.454588 -7.198387 -2.833713 0.567152 1.681044 -1.0 0.0 -0.0 
